<svg viewBox="0 0 1500 1500" version="1" xmlns="http://www.w3.org/2000/svg" fill-rule="evenodd" clip-rule="evenodd">
  <path fill="#0ff" d="M0 0h1500v1500H0z"/>
  <path fill="none" stroke="#000" d="M-33-21h1559v1550H-33z"/>
  <path d="M186 706l25 62 26-62h43l-49 95v47h-39v-47l-48-95h42zm159 144a68 68 0 0 1-52-23 74 74 0 0 1-20-50 70 70 0 0 1 21-50 74 74 0 0 1 52-21 68 68 0 0 1 52 22 74 74 0 0 1 14 77 73 73 0 0 1-67 45zm-32-72l2 14c1 4 3 8 6 11 3 4 6 7 10 9s9 3 15 3c5 0 10-1 14-3s8-5 10-9c3-3 5-7 6-12a51 51 0 0 0 0-28c-1-4-3-8-6-11a31 31 0 0 0-25-12c-5 0-10 1-14 3-4 3-8 5-10 9l-6 12-2 14zm183 37a21 21 0 0 0 20-11l4-11 1-14v-73h39v73c0 10-1 20-3 28-3 9-7 16-12 22-6 7-12 12-20 15-8 4-18 6-29 6s-21-2-29-6a56 56 0 0 1-31-38c-3-8-4-17-4-27v-73h39v73l2 14 4 11c2 4 5 6 8 8s7 3 11 3zm87 33V706h65c7 0 13 2 19 5a50 50 0 0 1 25 27c3 6 4 12 4 18 0 8-2 16-6 23-3 7-8 13-15 17l30 52h-44l-25-43h-14v43h-39zm39-77h24c3 0 5-1 7-4s3-7 3-11c0-5-1-9-3-12-3-2-5-4-8-4h-23v31zm161-65l28 93 28-93h41l-53 142h-32l-53-142h41zm107 0h39v142h-39zm64 142V706h54c12 0 22 2 31 6a64 64 0 0 1 36 38 80 80 0 0 1 0 57 63 63 0 0 1-37 36c-9 4-19 5-30 5h-54zm86-71c0-5 0-10-2-15-1-4-3-8-6-11-3-4-6-6-10-8s-9-3-14-3h-15v74h15c5 0 10 0 14-2l10-8c3-3 5-7 6-12 2-4 2-9 2-15zm158 37v34h-101V706h99v34h-60v20h52v32h-52v22h62zm80 36a68 68 0 0 1-52-23 74 74 0 0 1-20-50 70 70 0 0 1 21-50 74 74 0 0 1 52-21 68 68 0 0 1 52 22 74 74 0 0 1 14 77 73 73 0 0 1-67 45zm-32-72l2 14c1 4 3 8 6 11 3 4 6 7 10 9s9 3 15 3c5 0 10-1 14-3s8-5 10-9c3-3 5-7 6-12a51 51 0 0 0 0-28c-1-4-3-8-6-11a31 31 0 0 0-25-12c-5 0-10 1-14 3-4 3-8 5-10 9l-6 12-2 14z" fill="#f0f" fill-rule="nonzero"/>
</svg>
